<?xml version="1.0"?>
<svg xmlns="http://www.w3.org/2000/svg" xmlns:xlink="http://www.w3.org/1999/xlink" version="1.1" id="Layer_1" x="0px" y="0px" viewBox="0 0 512.001 512.001" style="enable-background:new 0 0 512.001 512.001;" xml:space="preserve" width="512px" height="512px"><g><g>
	<g>
		<circle cx="144.044" cy="86.745" r="9.199" data-original="#000000" class="active-path" data-old_color="#000000" fill="#FFFEFE"/>
	</g>
</g><g>
	<g>
		<circle cx="182.245" cy="86.745" r="9.199" data-original="#000000" class="active-path" data-old_color="#000000" fill="#FFFEFE"/>
	</g>
</g><g>
	<g>
		<circle cx="220.434" cy="86.745" r="9.199" data-original="#000000" class="active-path" data-old_color="#000000" fill="#FFFEFE"/>
	</g>
</g><g>
	<g>
		<circle cx="336.959" cy="372.887" r="9.199" data-original="#000000" class="active-path" data-old_color="#000000" fill="#FFFEFE"/>
	</g>
</g><g>
	<g>
		<circle cx="503.56" cy="480.554" r="8.441" data-original="#000000" class="active-path" data-old_color="#000000" fill="#FFFEFE"/>
	</g>
</g><g>
	<g>
		<path d="M367.042,136.671c11.152-11.152,17.293-25.977,17.293-41.748v-12.77c0-4.663-3.779-8.441-8.441-8.441    s-8.441,3.778-8.441,8.441v12.77c0,11.261-4.385,21.846-12.347,29.808l-3.353,3.353c-21.49,21.491-30.445,53.201-23.374,82.756    l30.72,128.385c0.926,3.874,4.386,6.48,8.203,6.48c0.651,0,1.311-0.075,1.971-0.234c4.535-1.085,7.331-5.64,6.246-10.174    l-30.72-128.384c-5.717-23.89,1.523-49.52,18.892-66.89L367.042,136.671z" data-original="#000000" class="active-path" data-old_color="#000000" fill="#FFFEFE"/>
	</g>
</g><g>
	<g>
		<path d="M487.238,400.155c-13.654,0-24.762,11.108-24.762,24.762v37.986c0,13.188-10.73,23.917-23.917,23.917    c-13.188,0-23.917-10.73-23.917-23.917v-72.308l17.042-12.108c2.84-2.018,4.149-5.572,3.294-8.95L391.304,196.74    c-4.068-16.095,1.751-33.105,14.824-43.337c6.167-4.827,13.878-7.596,21.709-7.798l16.956-0.436    c4.576-0.117,8.225-3.861,8.225-8.438v-20.177h21.376c4.662,0,8.441-3.778,8.441-8.441V44.029c0-4.663-3.78-8.441-8.441-8.441    h-21.376V28.8c0-4.663-3.779-8.441-8.441-8.441h-44.105L377.448,9.511c-1.126-0.53-2.353-0.805-3.597-0.805h-8.586    c-4.662,0-8.441,3.778-8.441,8.441v9.752h-12.633l-16.444-16.178c-1.579-1.553-3.705-2.423-5.92-2.423H90.122    c-4.662,0-8.441,3.778-8.441,8.441v0.553H60.304c-4.662,0-8.441,3.778-8.441,8.441v5.388L8.008,46.722    c-4.713,1.677-7.854,5.991-8.003,10.991s2.729,9.494,7.336,11.449l44.522,18.887v1.77c0,4.663,3.779,8.441,8.441,8.441h22.046    c0.252,0.609,0.553,1.198,0.944,1.737l29.436,40.474c1.588,2.183,4.126,3.477,6.826,3.477H220.29    c11.115,0,21.642,3.13,30.641,8.635c0.06,11.937-4.536,23.456-12.944,32.085l-12.64,12.975c-5.972,6.131-8.83,14.524-7.84,23.028    c0.985,8.464,5.663,15.935,12.836,20.501c9.17,5.837,17.178,9.968,23.801,12.277c9.704,3.386,21.67,4.241,31.287,4.241    c3.698,0,7.041-0.127,9.783-0.285l14.039,54.016c5.65,21.74-4.168,44.451-23.876,55.228c-4.031,2.204-5.558,7.226-3.44,11.3    c11.294,21.718,33.516,35.21,57.994,35.21h40.255c1.752,0,3.461-0.545,4.889-1.56l12.684-9.011v60.312    c0,22.497,18.303,40.8,40.8,40.8s40.8-18.303,40.8-40.8v-37.986c0-4.343,3.534-7.879,7.879-7.879c4.344,0,7.879,3.535,7.879,7.879    v28.701c0,4.663,3.779,8.441,8.441,8.441s8.441-3.778,8.441-8.441v-28.701C512,411.263,500.892,400.155,487.238,400.155z     M453.02,52.47h12.935v47.202H453.02V52.47z M51.863,69.71L25.365,58.468l26.498-9.426V69.71z M81.68,81.377H68.746V37.079v-2.904    H81.68V81.377z M377.494,396.279h-37.562c-15.563,0-29.896-7.352-38.949-19.599c21.424-15.775,31.454-43.168,24.61-69.505    l-17.864-68.737c-1.173-4.512-5.783-7.217-10.293-6.046c-3.85,1.001-6.377,4.504-6.31,8.313    c-9.387,0.339-22.38-0.042-31.421-3.195c-5.32-1.855-12.338-5.513-20.297-10.579c-2.866-1.824-4.736-4.816-5.131-8.21    c-0.4-3.434,0.753-6.823,3.165-9.297l12.639-12.975c8.241-8.459,13.8-18.948,16.276-30.219    c4.959,6.258,8.695,13.594,10.801,21.696c1.173,4.512,5.784,7.217,10.293,6.046c4.512-1.173,7.22-5.782,6.047-10.294    c-4.599-17.697-15.241-32.558-29.367-42.609c-0.136-0.099-0.275-0.195-0.416-0.286c-12.403-8.701-27.445-13.719-43.424-13.719    h-96.434L98.563,92.287v-2.468V25.733v-0.553h13.869l12.996,35.497c1.253,3.42,4.485,5.542,7.927,5.542    c0.963,0,1.945-0.165,2.902-0.517c4.378-1.603,6.627-6.452,5.024-10.829L130.41,25.181h20.218l12.996,35.497    c1.253,3.42,4.485,5.542,7.927,5.542c0.963,0,1.945-0.165,2.902-0.517c4.378-1.603,6.627-6.452,5.024-10.829l-10.871-29.694    h20.219l12.996,35.497c1.253,3.42,4.485,5.542,7.927,5.542c0.963,0,1.945-0.165,2.902-0.517c4.378-1.603,6.627-6.452,5.024-10.829    l-10.871-29.694h20.218l12.996,35.497c1.253,3.42,4.485,5.542,7.927,5.542c0.963,0,1.945-0.165,2.902-0.517    c4.378-1.603,6.627-6.452,5.024-10.829l-10.871-29.694h20.218l12.996,35.497c1.253,3.42,4.485,5.542,7.927,5.542    c0.963,0,1.945-0.165,2.902-0.517c4.378-1.603,6.627-6.452,5.024-10.829l-10.871-29.694h35.172l16.444,16.178    c1.579,1.553,3.705,2.423,5.92,2.423h24.53c4.662,0,8.441-3.778,8.441-8.441v-8.93l21.28,10.025    c1.125,0.53,2.353,0.805,3.597,0.805h37.552v6.787v64.085v20.39l-8.732,0.224c-11.429,0.294-22.68,4.336-31.681,11.379    c-18.333,14.347-26.491,38.2-20.787,60.769l42.258,167.194L377.494,396.279z" data-original="#000000" class="active-path" data-old_color="#000000" fill="#FFFEFE"/>
	</g>
</g><g>
	<g>
		<circle cx="291.533" cy="213.546" r="9.199" data-original="#000000" class="active-path" data-old_color="#000000" fill="#FFFEFE"/>
	</g>
</g></g> </svg>
