<?xml version="1.0"?>
<svg xmlns="http://www.w3.org/2000/svg" id="Capa_1" enable-background="new 0 0 488.471 488.471" height="512px" viewBox="0 0 488.471 488.471" width="512px" class=""><g><path d="m122.118 183.176c33.675 0 61.059-27.384 61.059-61.059s-27.384-61.059-61.059-61.059-61.059 27.384-61.059 61.059 27.384 61.059 61.059 61.059zm0-91.588c16.83 0 30.529 13.699 30.529 30.529s-13.699 30.529-30.529 30.529-30.529-13.699-30.529-30.529 13.699-30.529 30.529-30.529z" data-original="#000000" class="active-path" data-old_color="#000000" fill="#D4C9C9"/><path d="m483.998 309.766-152.677-152.617c-5.963-5.963-15.622-5.963-21.585 0l-82.074 82.074 21.593 21.589 71.274-71.285 137.412 137.352v70.003h-115.767l-178.734-178.704c-5.963-5.963-15.622-5.963-21.585 0l-137.383 137.382c-2.862 2.862-4.472 6.738-4.472 10.793v45.794c0 8.437 6.827 15.265 15.265 15.265h457.941c8.437 0 15.265-6.827 15.265-15.265v-91.588c0-4.055-1.61-7.931-4.473-10.793zm-453.468 87.117v-24.209l122.118-122.118 146.356 146.327z" data-original="#000000" class="active-path" data-old_color="#000000" fill="#D4C9C9"/></g> </svg>
