<?xml version="1.0"?>
<svg xmlns="http://www.w3.org/2000/svg" xmlns:xlink="http://www.w3.org/1999/xlink" version="1.1" id="Layer_1" x="0px" y="0px" viewBox="0 0 512 512" style="enable-background:new 0 0 512 512;" xml:space="preserve" width="512px" height="512px" class=""><g><g>
	<g>
		<circle cx="332.087" cy="241.789" r="12.739" data-original="#000000" class="active-path" data-old_color="#000000" fill="#FFFBFB"/>
	</g>
</g><g>
	<g>
		<path d="M286.768,342.026c-1.054-7.478-4.554-21.001-16.161-27.545c-4.165-2.349-8.936-3.54-14.179-3.54    c-7.011,0-13.525,2.153-17.755,3.961c-14.519,6.205-28.064,19.015-37.16,35.145c-9.096,16.13-13.052,34.347-10.85,49.983    c1.054,7.478,4.556,21.001,16.161,27.545c4.165,2.349,8.935,3.54,14.178,3.54c7.011,0,13.526-2.154,17.757-3.962    c14.518-6.204,28.063-19.014,37.159-35.144S288.969,357.661,286.768,342.026z M261.74,384.012    c-7.375,13.077-18.083,23.347-29.378,28.174c-4.004,1.71-8.038,2.652-11.361,2.652c-2.406,0-4.487-0.484-6.181-1.44    c-5.721-3.227-7.529-12.013-8.039-15.64c-1.713-12.164,1.535-26.64,8.91-39.716c7.375-13.077,18.084-23.347,29.378-28.174    c4.003-1.71,8.038-2.651,11.359-2.651c2.407,0,4.488,0.484,6.184,1.44c5.721,3.227,7.528,12.012,8.039,15.639    C272.362,356.46,269.115,370.936,261.74,384.012z" data-original="#000000" class="active-path" data-old_color="#000000" fill="#FFFBFB"/>
	</g>
</g><g>
	<g>
		<path d="M495.74,331.388c-20.018-35.493-54.563-58.427-88.01-58.427c-0.693,0-1.383,0.011-2.071,0.031l-23-31.167l46.167-62.557    c23.982-32.496,17.055-78.445-15.442-102.426c-1.736-1.281-3.912-1.822-6.046-1.499c-2.134,0.322-4.053,1.478-5.335,3.215    l-69.917,94.74l-69.916-94.74c-2.669-3.618-7.764-4.385-11.38-1.716c-32.498,23.982-39.424,69.931-15.442,102.426l46.167,62.557    l-23,31.167c-0.688-0.02-1.378-0.031-2.071-0.031c-11.869,0-23.873,2.901-35.321,8.214v-66.473    c0-31.49-25.62-57.111-57.111-57.111h-0.05v-24.098c0-4.495-3.643-8.138-8.138-8.138h-13.111l-17.343-71.087    c-0.032-0.128-0.066-0.255-0.104-0.383c-1.945-6.568-7.853-10.981-14.704-10.981c-6.85,0-12.759,4.412-14.704,10.981    c-0.037,0.127-0.072,0.255-0.102,0.383l-17.344,71.087H65.3c-4.495,0-8.138,3.643-8.138,8.138v24.098h-0.051    C25.62,157.591,0,183.211,0,214.701v197.281c0,31.49,25.62,57.111,57.111,57.111h106.9c9.543,0,18.826-2.366,27.136-6.866    c9.143,4.554,19.162,6.867,29.842,6.867c33.445,0,67.993-22.937,88.009-58.428c16.224-28.768,19.982-60.428,12.664-86.186    l10.424-14.125l10.424,14.125c-7.318,25.758-3.56,57.418,12.664,86.186c20.016,35.49,54.562,58.424,88.009,58.428h0.009    c11.845,0,22.886-2.84,32.814-8.439C514.76,438.799,523.613,380.81,495.74,331.388z M409.922,95.237    c19.832,19.558,22.819,51.315,5.807,74.367l-43.184,58.515l-30.344-41.118L409.922,95.237z M110.561,62.247l15.396,63.108H95.165    L110.561,62.247z M73.438,141.631h11.363h51.518h11.365v15.959H73.438V141.631z M164.011,452.815H57.111    c-22.516,0-40.834-18.318-40.834-40.834v-197.28c0-22.516,18.318-40.834,40.834-40.834h8.19h90.522h8.188    c22.516,0,40.834,18.318,40.834,40.834v75.894c-8.593,6.045-16.471,13.417-23.408,21.832V235.01    c0-12.188-9.916-22.104-22.105-22.104H61.789c-12.188,0-22.105,9.916-22.105,22.104v156.665c0,12.188,9.916,22.105,22.105,22.105    h92.878c3.495,14.814,10.426,27.431,20.232,36.917c0.075,0.072,0.146,0.147,0.221,0.219c0.098,0.094,0.19,0.193,0.288,0.286    C171.732,452.268,167.902,452.815,164.011,452.815z M152.125,392.985c0.008,0.415,0.012,0.831,0.025,1.245    c0.026,0.879,0.065,1.755,0.112,2.63c0.011,0.214,0.014,0.43,0.028,0.643H61.789c-3.214,0-5.828-2.614-5.828-5.828V235.009    c0-3.213,2.614-5.827,5.828-5.827h97.544c3.214,0,5.828,2.614,5.828,5.827V337.57c-0.227,0.457-0.437,0.92-0.66,1.38    C156.428,355.671,151.797,374.368,152.125,392.985z M294.821,402.669c-17.18,30.463-46.161,50.149-73.832,50.149    c-9.014,0-17.367-2.133-24.826-6.339c-0.328-0.186-0.638-0.394-0.961-0.586c-0.016-0.01-0.029-0.021-0.044-0.031    c-32.708-20.316-31.238-66.356-17.087-97.531c8.478-18.677,22.007-35.412,39.319-46.565c0.241-0.156,0.466-0.329,0.688-0.507    c12.179-7.709,25.415-12.02,38.363-12.02c1.744,0,3.454,0.105,5.146,0.264c0.019,0.002,0.036,0.008,0.055,0.009    c20.583,1.719,36.841,16.766,43.41,35.969c0.075,0.218,0.174,0.421,0.265,0.63C312.612,348.106,309.496,376.647,294.821,402.669z     M314.464,306.822c0.604-0.819-5.624-8.442-6.438-9.445c-2.644-3.263-5.588-6.284-8.792-9c-6.63-5.62-14.359-9.874-22.666-12.441    l15.058-20.405l30.344,41.117C321.972,296.648,314.464,306.821,314.464,306.822z M248.445,169.605    c-17.012-23.052-14.026-54.808,5.807-74.367c0,0,133.351,180.698,133.353,180.699c-0.542-0.734-9.722,3.883-10.603,4.339    c-11.501,5.946-20.915,15.31-27.291,26.546L248.445,169.605z M468.01,446.478c-7.458,4.205-15.807,6.339-24.824,6.339    c-27.673-0.003-56.654-19.688-73.833-50.149c-14.676-26.023-17.792-54.563-10.499-76.561c0.091-0.208,0.19-0.412,0.265-0.629    c6.532-19.131,22.795-34.001,43.41-35.969c0.019-0.001,0.036-0.007,0.055-0.009c1.693-0.159,3.403-0.264,5.146-0.264    c27.671,0,56.652,19.683,73.833,50.147C505.027,380.987,498.946,429.03,468.01,446.478z" data-original="#000000" class="active-path" data-old_color="#000000" fill="#FFFBFB"/>
	</g>
</g><g>
	<g>
		<path d="M462.66,350.048c-9.096-16.131-22.641-28.941-37.162-35.146c-4.229-1.807-10.743-3.961-17.753-3.961    c-5.244,0-10.013,1.191-14.18,3.54c-11.607,6.546-15.107,20.067-16.16,27.545c-2.201,15.636,1.754,33.853,10.85,49.983    c9.096,16.131,22.641,28.94,37.16,35.145c4.23,1.807,10.745,3.961,17.754,3.961c5.244,0,10.012-1.191,14.178-3.539    c11.608-6.547,15.108-20.069,16.162-27.548C475.713,384.395,471.758,366.177,462.66,350.048z M457.392,397.758    c-0.511,3.627-2.317,12.412-8.039,15.64c-1.695,0.956-3.775,1.44-6.182,1.44c-3.321,0-7.356-0.941-11.36-2.652    c-11.295-4.826-22.003-15.096-29.378-28.174c-7.375-13.076-10.622-27.553-8.911-39.717c0.511-3.626,2.317-12.411,8.039-15.639    c1.696-0.956,3.776-1.44,6.183-1.44c3.322,0,7.356,0.941,11.359,2.651c11.297,4.828,22.005,15.097,29.379,28.174    C455.859,371.12,459.105,385.596,457.392,397.758z" data-original="#000000" class="active-path" data-old_color="#000000" fill="#FFFBFB"/>
	</g>
</g></g> </svg>
